<?xml version="1.0" standalone="no"?><!DOCTYPE svg PUBLIC "-//W3C//DTD SVG 1.1//EN" "http://www.w3.org/Graphics/SVG/1.1/DTD/svg11.dtd"><svg t="1587525598691" class="icon" viewBox="0 0 1024 1024" version="1.1" xmlns="http://www.w3.org/2000/svg" p-id="4816" xmlns:xlink="http://www.w3.org/1999/xlink" width="64" height="64"><defs><style type="text/css"></style></defs><path d="M911.304054 594.769626a393.933169 393.933169 0 0 0-48.621474-86.843907c14.765052-11.51039 24.965639-35.840972 24.965639-63.9422 0-38.897179-19.44859-70.451524-43.541026-71.08658a327.133217 327.133217 0 0 0-323.918246-372.896939c-180.554356 0-327.014144 146.459788-327.014144 327.25229 0 17.344967 1.389185 34.412096 3.9691 51.042625-16.035164 10.71657-27.307408 36.079118-27.307408 65.688604 0 17.146512 3.810336 32.903838 10.121205 45.168357a376.707275 376.707275 0 0 0-58.147314 85.732559c-46.359087 93.194467-39.452853 187.381208-10.875334 202.741625 14.645979 7.858818 52.82872-16.868675 90.336715-62.672088 6.112414 53.940068 31.435271 103.156907 70.173687 142.808215-64.220037 19.131062-106.768788 56.916893-101.053285 95.258399 7.104689 48.46271 88.391856 79.501072 181.626013 69.379867 68.228828-7.461908 123.9153-34.928079 146.062878-68.109755a382.779998 382.779998 0 0 0 46.835379-0.754129c23.695527 31.594035 76.167028 57.869477 139.39479 66.006132 90.416097 11.589772 168.647056-18.178478 174.719779-66.522115 4.842302-38.103359-36.55541-76.365483-98.51306-96.528511 36.396646-37.666758 60.727229-83.867082 68.070064-134.473105 33.300748 45.922486 67.355626 75.254135 85.176884 71.324725 21.03623-4.683538 36.118809-103.712581-2.460842-198.574069z" p-id="4817" data-spm-anchor-id="a313x.7781069.0.i16" class="" fill="#d1d9e0"></path></svg>